<svg width="40" height="40" viewBox="0 0 40 40" fill="none" xmlns="http://www.w3.org/2000/svg">
<path d="M19.9997 12.1261C22.6574 12.1269 24.8114 14.2918 24.812 16.9638C24.812 19.6363 22.6578 21.8032 19.9997 21.804C17.3416 21.8033 15.1849 19.6363 15.1849 16.9638C15.1855 14.2917 17.3419 12.1267 19.9997 12.1261Z" fill="#1E1E1E"/>
<path fill-rule="evenodd" clip-rule="evenodd" d="M32.1818 0C36.4994 0 39.9995 3.5001 39.9995 7.81768V32.1818C39.9995 36.4994 36.4994 39.9995 32.1818 39.9995H7.81768C3.5001 39.9995 0 36.4994 0 32.1818V7.81768C0 3.5001 3.5001 3.15018e-07 7.81768 0H32.1818ZM19.9997 8.29611C15.2128 8.29677 11.3301 12.1768 11.3295 16.9638C11.3295 20.6483 13.6306 23.7936 16.8721 25.0487C16.163 24.9026 15.3699 24.8069 14.4647 24.8069C13.7318 24.808 13.0378 25.3481 12.9531 26.1404L12.9429 26.3032C12.9436 27.1845 13.6841 27.7959 14.4647 27.7971L14.8083 27.8072C16.4803 27.8902 17.541 28.58 18.8724 29.4843C20.2975 30.4522 22.0474 31.6709 24.8425 31.6983C24.8479 31.6988 24.856 31.7003 24.8629 31.7008C24.8803 31.7018 24.9077 31.7033 24.9367 31.7034C25.9778 31.7028 26.9268 30.9416 27.0412 29.8634L27.054 29.6446C27.0531 28.528 26.1653 27.6941 25.1454 27.596L25.1199 27.5935H25.0945L24.9876 27.5858H24.9367C22.9735 27.5854 21.8129 27.0314 20.4069 26.3516C19.8068 26.0615 19.1661 25.7537 18.4347 25.4889C18.9418 25.5814 19.4659 25.6339 19.9997 25.634C24.7869 25.6332 28.6674 21.7511 28.6674 16.9638C28.6668 12.1769 24.7865 8.2969 19.9997 8.29611Z" fill="#1E1E1E"/>
<path fill-rule="evenodd" clip-rule="evenodd" d="M20.001 8.29638C24.7878 8.29717 28.6682 12.1771 28.6686 16.964C28.6686 21.7514 24.7881 25.6334 20.001 25.6342C19.4667 25.6342 18.9434 25.5817 18.4359 25.4892C19.1678 25.7541 19.8077 26.0616 20.4081 26.3519C21.8144 27.0318 22.974 27.5859 24.9379 27.5861H24.9888L25.0957 27.5937H25.1211L25.1466 27.5963C26.1666 27.6944 27.0545 28.5282 27.0552 29.6449L27.0425 29.8637C26.928 30.9418 25.979 31.7031 24.9379 31.7036C24.9085 31.7036 24.8818 31.7021 24.8641 31.7011C24.8568 31.7006 24.8495 31.6991 24.8438 31.6985C22.048 31.6715 20.2989 30.4526 18.8736 29.4845C17.5417 28.58 16.482 27.8905 14.8095 27.8075L14.466 27.7973C13.6849 27.7968 12.9448 27.1852 12.9442 26.3035L12.9544 26.1406C13.039 25.3479 13.7325 24.8076 14.466 24.8072C15.3717 24.8072 16.1639 24.9027 16.8734 25.0489C13.6312 23.7942 11.3308 20.649 11.3308 16.964C11.3312 12.1766 15.2134 8.29638 20.001 8.29638ZM20.001 12.1263C17.3425 12.1263 15.1866 14.2914 15.1862 16.964C15.1862 19.637 17.3422 21.8043 20.001 21.8043C22.659 21.8035 24.8132 19.6365 24.8132 16.964C24.8128 14.2919 22.6588 12.1271 20.001 12.1263Z" fill="#0EC541"/>
</svg>
