<svg width="139" height="40" viewBox="0 0 139 40" fill="none" xmlns="http://www.w3.org/2000/svg">
<path d="M124.534 28.6815V6.86682H130.27V9.29533C130.968 8.34625 131.805 7.62049 132.782 7.11804C133.759 6.61559 134.862 6.36436 136.09 6.36436C137.151 6.39228 137.946 6.55976 138.477 6.86682V11.8913C138.058 11.6959 137.597 11.5564 137.095 11.4726C136.592 11.361 136.076 11.3051 135.546 11.3051C134.429 11.3051 133.41 11.5843 132.489 12.1425C131.568 12.7008 130.828 13.4964 130.27 14.5292V28.6815H124.534Z" fill="#0EC541"/>
<path d="M110.677 29.1002C108.5 29.1002 106.518 28.5978 104.731 27.5929C102.973 26.588 101.577 25.2342 100.544 23.5314C99.5114 21.8287 98.995 19.9166 98.995 17.7951C98.995 15.6737 99.4835 13.7616 100.46 12.0588C101.465 10.3561 102.819 9.00223 104.522 7.99733C106.225 6.99243 108.123 6.48998 110.216 6.48998C112.31 6.48998 114.166 7.00639 115.785 8.0392C117.404 9.07202 118.674 10.4677 119.595 12.2263C120.544 13.9849 121.019 15.9807 121.019 18.2138V19.7212H104.857C105.108 20.5865 105.513 21.3681 106.071 22.0659C106.657 22.7638 107.369 23.3081 108.207 23.6989C109.072 24.0897 109.993 24.2851 110.97 24.2851C111.947 24.2851 112.84 24.1316 113.65 23.8245C114.487 23.5175 115.199 23.0848 115.785 22.5265L119.554 25.9599C118.214 27.0486 116.832 27.8441 115.408 28.3466C114.013 28.849 112.435 29.1002 110.677 29.1002ZM104.773 15.6178H115.366C115.171 14.7525 114.808 13.9988 114.278 13.3568C113.775 12.6869 113.161 12.1705 112.436 11.8076C111.738 11.4168 110.956 11.2214 110.091 11.2214C109.197 11.2214 108.388 11.4028 107.662 11.7657C106.936 12.1286 106.322 12.645 105.82 13.3149C105.345 13.957 104.996 14.7246 104.773 15.6178Z" fill="#0EC541"/>
<path d="M92.8413 29.0165C90.4128 29.0165 88.5704 28.4722 87.3143 27.3835C86.0861 26.267 85.472 24.648 85.472 22.5265V11.6401H80.9918V6.86682H85.472V1.298L91.2083 0V6.86682H97.4471V11.6401H91.2083V21.3541C91.2083 22.359 91.4316 23.0848 91.8782 23.5314C92.3249 23.9501 93.1064 24.1595 94.223 24.1595C94.7813 24.1595 95.2837 24.1316 95.7304 24.0757C96.2049 23.992 96.7213 23.8524 97.2796 23.657V28.3884C96.6934 28.5838 95.9537 28.7374 95.0604 28.849C94.1951 28.9607 93.4554 29.0165 92.8413 29.0165Z" fill="#0EC541"/>
<path d="M68.1918 29.1002C66.0145 29.1002 64.0465 28.5978 62.288 27.5929C60.5294 26.588 59.1337 25.2342 58.1009 23.5314C57.0681 21.8287 56.5517 19.9166 56.5517 17.7951C56.5517 15.6737 57.0541 13.7616 58.059 12.0588C59.0918 10.3281 60.4875 8.96036 62.2461 7.95546C64.0326 6.95056 66.0145 6.44811 68.1918 6.44811C70.369 6.44811 72.337 6.95056 74.0955 7.95546C75.882 8.96036 77.2777 10.3281 78.2826 12.0588C79.3154 13.7616 79.8319 15.6737 79.8319 17.7951C79.8319 19.9166 79.3154 21.8287 78.2826 23.5314C77.2777 25.2342 75.896 26.588 74.1374 27.5929C72.3788 28.5978 70.397 29.1002 68.1918 29.1002ZM68.1918 24.1176C69.3362 24.1176 70.3551 23.8385 71.2483 23.2802C72.1695 22.7219 72.8953 21.9682 73.4256 21.0192C73.9839 20.0422 74.263 18.9675 74.263 17.7951C74.263 16.5948 73.9839 15.5201 73.4256 14.5711C72.8953 13.622 72.1695 12.8683 71.2483 12.31C70.3551 11.7238 69.3362 11.4307 68.1918 11.4307C67.0752 11.4307 66.0563 11.7238 65.1352 12.31C64.214 12.8683 63.4883 13.622 62.9579 14.5711C62.4275 15.5201 62.1624 16.5948 62.1624 17.7951C62.1624 18.9675 62.4275 20.0422 62.9579 21.0192C63.4883 21.9682 64.214 22.7219 65.1352 23.2802C66.0563 23.8385 67.0752 24.1176 68.1918 24.1176Z" fill="#0EC541"/>
<path d="M41.1946 29.1002C39.5197 29.1002 38.0263 28.7374 36.7144 28.0116C35.4303 27.2579 34.4115 26.2251 33.6578 24.9132C32.932 23.6012 32.5692 22.0939 32.5692 20.3911V6.86683H38.3055V19.5537C38.3055 20.9494 38.7102 22.0659 39.5197 22.9034C40.3571 23.7408 41.4737 24.1595 42.8694 24.1595C43.8185 24.1595 44.6698 23.978 45.4235 23.6152C46.2051 23.2244 46.8471 22.6801 47.3496 21.9822V6.86683H53.0859V28.6815H47.3496V26.923C45.6747 28.3745 43.6231 29.1002 41.1946 29.1002Z" fill="#0EC541"/>
<path fill-rule="evenodd" clip-rule="evenodd" d="M14.8156 0C22.9962 0.00100702 29.6273 6.63156 29.6278 14.8122C29.6278 22.9934 22.9966 29.6268 14.8156 29.6278C13.8999 29.6278 13.0037 29.5381 12.134 29.3791C13.3878 29.8325 14.486 30.3575 15.5142 30.8545C17.9167 32.0161 19.8971 32.9634 23.2525 32.9637H23.2968L23.3377 32.9672L23.5217 32.974L23.6103 32.9808C25.3531 33.1486 26.8699 34.5722 26.8712 36.4802L26.8508 36.8551C26.6553 38.6975 25.0317 39.9993 23.2525 40.0001C23.2022 40.0001 23.1565 39.9985 23.1264 39.9967C23.1133 39.9959 23.0991 39.9907 23.0889 39.9899C18.3117 39.9434 15.3226 37.8618 12.887 36.2076C10.6117 34.6624 8.80328 33.4838 5.94601 33.342L5.35652 33.3283C4.02171 33.3269 2.7603 32.2765 2.76004 30.7693L2.77367 30.4933C2.91823 29.139 4.10358 28.2151 5.35652 28.2137C6.87478 28.2137 8.20992 28.3608 9.40458 28.6022C3.89951 26.4407 0 21.084 0 14.8122C0.000587641 6.63094 6.63421 0 14.8156 0ZM14.8156 6.54232C10.2726 6.54232 6.5872 10.2449 6.58662 14.8122C6.58662 19.38 10.2722 23.0821 14.8156 23.0821C19.3582 23.0811 23.0412 19.3794 23.0412 14.8122C23.0406 10.2455 19.3578 6.54332 14.8156 6.54232Z" fill="#0EC541"/>
</svg>
